<mxfile host="app.diagrams.net" modified="2023-07-07T20:55:44.636Z" agent="Mozilla/5.0 (Windows NT 10.0; Win64; x64) AppleWebKit/537.36 (KHTML, like Gecko) Chrome/114.0.0.0 Safari/537.36" etag="Y3Ri81GOJQR2U9dQeUGC" version="21.6.1" type="device">
  <diagram id="C5RBs43oDa-KdzZeNtuy" name="Page-1">
    <mxGraphModel dx="1050" dy="575" grid="1" gridSize="10" guides="1" tooltips="1" connect="1" arrows="1" fold="1" page="1" pageScale="1" pageWidth="1654" pageHeight="1169" math="0" shadow="0">
      <root>
        <mxCell id="WIyWlLk6GJQsqaUBKTNV-0" />
        <mxCell id="WIyWlLk6GJQsqaUBKTNV-1" parent="WIyWlLk6GJQsqaUBKTNV-0" />
        <mxCell id="MDx-b8pmEuzIqAeEHO0I-29" value="" style="group" vertex="1" connectable="0" parent="WIyWlLk6GJQsqaUBKTNV-1">
          <mxGeometry x="40" y="40" width="260" height="570" as="geometry" />
        </mxCell>
        <mxCell id="MDx-b8pmEuzIqAeEHO0I-27" value="&amp;nbsp;com.jah.flooring_mastery.dto" style="shape=folder;fontStyle=1;tabWidth=180;tabHeight=30;tabPosition=left;html=1;boundedLbl=1;labelInHeader=1;container=1;collapsible=0;whiteSpace=wrap;" vertex="1" parent="MDx-b8pmEuzIqAeEHO0I-29">
          <mxGeometry width="260" height="570" as="geometry" />
        </mxCell>
        <mxCell id="MDx-b8pmEuzIqAeEHO0I-28" value="" style="html=1;strokeColor=none;resizeWidth=1;resizeHeight=1;fillColor=none;part=1;connectable=0;allowArrows=0;deletable=0;whiteSpace=wrap;" vertex="1" parent="MDx-b8pmEuzIqAeEHO0I-27">
          <mxGeometry width="260" height="399" relative="1" as="geometry">
            <mxPoint y="30" as="offset" />
          </mxGeometry>
        </mxCell>
        <mxCell id="MDx-b8pmEuzIqAeEHO0I-12" value="Product" style="swimlane;fontStyle=3;align=center;verticalAlign=top;childLayout=stackLayout;horizontal=1;startSize=26;horizontalStack=0;resizeParent=1;resizeLast=0;collapsible=1;marginBottom=0;rounded=0;shadow=0;strokeWidth=1;labelBackgroundColor=none;" vertex="1" parent="MDx-b8pmEuzIqAeEHO0I-29">
          <mxGeometry x="15" y="304.5445454545454" width="230" height="111.99999999999999" as="geometry">
            <mxRectangle x="230" y="140" width="160" height="26" as="alternateBounds" />
          </mxGeometry>
        </mxCell>
        <mxCell id="MDx-b8pmEuzIqAeEHO0I-13" value="-ProductType: String&#xa;-CostPerSquareFoot: BigDecimal&#xa;-LaborCostPerSquareFoot: BigDecimal" style="text;align=left;verticalAlign=top;spacingLeft=4;spacingRight=4;overflow=hidden;rotatable=0;points=[[0,0.5],[1,0.5]];portConstraint=eastwest;labelBackgroundColor=none;rounded=0;" vertex="1" parent="MDx-b8pmEuzIqAeEHO0I-12">
          <mxGeometry y="26" width="230" height="54.98181818181818" as="geometry" />
        </mxCell>
        <mxCell id="MDx-b8pmEuzIqAeEHO0I-14" value="" style="line;html=1;strokeWidth=1;align=left;verticalAlign=middle;spacingTop=-1;spacingLeft=3;spacingRight=3;rotatable=0;labelPosition=right;points=[];portConstraint=eastwest;labelBackgroundColor=none;rounded=0;" vertex="1" parent="MDx-b8pmEuzIqAeEHO0I-12">
          <mxGeometry y="80.98181818181817" width="230" height="10.18181818181818" as="geometry" />
        </mxCell>
        <mxCell id="zkfFHV4jXpPFQw0GAbJ--0" value="Order" style="swimlane;fontStyle=3;align=center;verticalAlign=top;childLayout=stackLayout;horizontal=1;startSize=26;horizontalStack=0;resizeParent=1;resizeLast=0;collapsible=1;marginBottom=0;rounded=0;shadow=0;strokeWidth=1;labelBackgroundColor=none;" parent="MDx-b8pmEuzIqAeEHO0I-29" vertex="1">
          <mxGeometry x="15" y="49.99909090909091" width="230" height="234.18181818181816" as="geometry">
            <mxRectangle x="230" y="140" width="160" height="26" as="alternateBounds" />
          </mxGeometry>
        </mxCell>
        <mxCell id="zkfFHV4jXpPFQw0GAbJ--1" value="-OrderNumber: int&#xa;-CustomerName: String&#xa;-State: String&#xa;-TaxRate: BigDecimal&#xa;-ProductType: String&#xa;-Area: BigDecimal&#xa;-CostPerSquareFoot: BigDecimal&#xa;-LaborCostPerSquareFoot: BigDecimal&#xa;-MaterialCost: BigDecimal&#xa;-LaborCost: BigDecimal&#xa;-Tax: BigDecimal&#xa;-Total: BigDecimal" style="text;align=left;verticalAlign=top;spacingLeft=4;spacingRight=4;overflow=hidden;rotatable=0;points=[[0,0.5],[1,0.5]];portConstraint=eastwest;labelBackgroundColor=none;rounded=0;" parent="zkfFHV4jXpPFQw0GAbJ--0" vertex="1">
          <mxGeometry y="26" width="230" height="177.16363636363636" as="geometry" />
        </mxCell>
        <mxCell id="zkfFHV4jXpPFQw0GAbJ--4" value="" style="line;html=1;strokeWidth=1;align=left;verticalAlign=middle;spacingTop=-1;spacingLeft=3;spacingRight=3;rotatable=0;labelPosition=right;points=[];portConstraint=eastwest;labelBackgroundColor=none;rounded=0;" parent="zkfFHV4jXpPFQw0GAbJ--0" vertex="1">
          <mxGeometry y="203.16363636363636" width="230" height="10.18181818181818" as="geometry" />
        </mxCell>
        <mxCell id="MDx-b8pmEuzIqAeEHO0I-17" value="Tax" style="swimlane;fontStyle=3;align=center;verticalAlign=top;childLayout=stackLayout;horizontal=1;startSize=26;horizontalStack=0;resizeParent=1;resizeLast=0;collapsible=1;marginBottom=0;rounded=0;shadow=0;strokeWidth=1;labelBackgroundColor=none;" vertex="1" parent="MDx-b8pmEuzIqAeEHO0I-29">
          <mxGeometry x="15" y="436.9081818181818" width="230" height="111.99999999999999" as="geometry">
            <mxRectangle x="230" y="140" width="160" height="26" as="alternateBounds" />
          </mxGeometry>
        </mxCell>
        <mxCell id="MDx-b8pmEuzIqAeEHO0I-18" value="-StateAbbreviation: String&#xa;-StateName: String&#xa;-TaxRate: BigDecimal" style="text;align=left;verticalAlign=top;spacingLeft=4;spacingRight=4;overflow=hidden;rotatable=0;points=[[0,0.5],[1,0.5]];portConstraint=eastwest;labelBackgroundColor=none;rounded=0;" vertex="1" parent="MDx-b8pmEuzIqAeEHO0I-17">
          <mxGeometry y="26" width="230" height="54.98181818181818" as="geometry" />
        </mxCell>
        <mxCell id="MDx-b8pmEuzIqAeEHO0I-19" value="" style="line;html=1;strokeWidth=1;align=left;verticalAlign=middle;spacingTop=-1;spacingLeft=3;spacingRight=3;rotatable=0;labelPosition=right;points=[];portConstraint=eastwest;labelBackgroundColor=none;rounded=0;" vertex="1" parent="MDx-b8pmEuzIqAeEHO0I-17">
          <mxGeometry y="80.98181818181817" width="230" height="10.18181818181818" as="geometry" />
        </mxCell>
        <mxCell id="MDx-b8pmEuzIqAeEHO0I-33" value="&amp;nbsp;com.jah.flooring_mastery.controller" style="shape=folder;fontStyle=1;tabWidth=220;tabHeight=30;tabPosition=left;html=1;boundedLbl=1;labelInHeader=1;container=1;collapsible=0;whiteSpace=wrap;" vertex="1" parent="WIyWlLk6GJQsqaUBKTNV-1">
          <mxGeometry x="360" y="40" width="260" height="253.34" as="geometry" />
        </mxCell>
        <mxCell id="MDx-b8pmEuzIqAeEHO0I-34" value="" style="html=1;strokeColor=none;resizeWidth=1;resizeHeight=1;fillColor=none;part=1;connectable=0;allowArrows=0;deletable=0;whiteSpace=wrap;" vertex="1" parent="MDx-b8pmEuzIqAeEHO0I-33">
          <mxGeometry width="260" height="66.3157894736842" relative="1" as="geometry">
            <mxPoint y="30" as="offset" />
          </mxGeometry>
        </mxCell>
        <mxCell id="MDx-b8pmEuzIqAeEHO0I-38" value="FlooringMasteryController" style="swimlane;fontStyle=3;align=center;verticalAlign=top;childLayout=stackLayout;horizontal=1;startSize=26;horizontalStack=0;resizeParent=1;resizeLast=0;collapsible=1;marginBottom=0;rounded=0;shadow=0;strokeWidth=1;labelBackgroundColor=none;" vertex="1" parent="MDx-b8pmEuzIqAeEHO0I-33">
          <mxGeometry x="15" y="50" width="230" height="180" as="geometry">
            <mxRectangle x="230" y="140" width="160" height="26" as="alternateBounds" />
          </mxGeometry>
        </mxCell>
        <mxCell id="MDx-b8pmEuzIqAeEHO0I-39" value="-FlooringMasteryView: view&#xa;-FlooringMasteryServiceLayer: service" style="text;align=left;verticalAlign=top;spacingLeft=4;spacingRight=4;overflow=hidden;rotatable=0;points=[[0,0.5],[1,0.5]];portConstraint=eastwest;labelBackgroundColor=none;rounded=0;" vertex="1" parent="MDx-b8pmEuzIqAeEHO0I-38">
          <mxGeometry y="26" width="230" height="34" as="geometry" />
        </mxCell>
        <mxCell id="MDx-b8pmEuzIqAeEHO0I-40" value="" style="line;html=1;strokeWidth=1;align=left;verticalAlign=middle;spacingTop=-1;spacingLeft=3;spacingRight=3;rotatable=0;labelPosition=right;points=[];portConstraint=eastwest;labelBackgroundColor=none;rounded=0;" vertex="1" parent="MDx-b8pmEuzIqAeEHO0I-38">
          <mxGeometry y="60" width="230" height="20" as="geometry" />
        </mxCell>
        <mxCell id="MDx-b8pmEuzIqAeEHO0I-50" value="+run()&#xa;-displayOrders()&#xa;-addOrder()&#xa;-editOrder()&#xa;-removeOrder()&#xa;-exportAllData()&#xa;&#xa;&#xa;&#xa;" style="text;align=left;verticalAlign=top;spacingLeft=4;spacingRight=4;overflow=hidden;rotatable=0;points=[[0,0.5],[1,0.5]];portConstraint=eastwest;labelBackgroundColor=none;rounded=0;" vertex="1" parent="MDx-b8pmEuzIqAeEHO0I-38">
          <mxGeometry y="80" width="230" height="100" as="geometry" />
        </mxCell>
        <mxCell id="MDx-b8pmEuzIqAeEHO0I-51" value="&amp;nbsp;com.jah.flooring_mastery.dao" style="shape=folder;fontStyle=1;tabWidth=220;tabHeight=30;tabPosition=left;html=1;boundedLbl=1;labelInHeader=1;container=0;collapsible=0;whiteSpace=wrap;" vertex="1" parent="WIyWlLk6GJQsqaUBKTNV-1">
          <mxGeometry x="360" y="310" width="970" height="370" as="geometry" />
        </mxCell>
        <mxCell id="MDx-b8pmEuzIqAeEHO0I-52" value="" style="html=1;strokeColor=none;resizeWidth=1;resizeHeight=1;fillColor=none;part=1;connectable=0;allowArrows=0;deletable=0;whiteSpace=wrap;" vertex="1" parent="WIyWlLk6GJQsqaUBKTNV-1">
          <mxGeometry x="360" y="340" width="369.99999999999994" height="54.970852567591706" as="geometry">
            <mxPoint y="30" as="offset" />
          </mxGeometry>
        </mxCell>
        <mxCell id="MDx-b8pmEuzIqAeEHO0I-53" value="FlooringMasteryOrderDaoFileImpl" style="swimlane;fontStyle=3;align=center;verticalAlign=top;childLayout=stackLayout;horizontal=1;startSize=26;horizontalStack=0;resizeParent=1;resizeLast=0;collapsible=1;marginBottom=0;rounded=0;shadow=0;strokeWidth=1;labelBackgroundColor=none;" vertex="1" parent="WIyWlLk6GJQsqaUBKTNV-1">
          <mxGeometry x="381.35" y="351.45" width="327.31" height="125.47106655088022" as="geometry">
            <mxRectangle x="230" y="140" width="160" height="26" as="alternateBounds" />
          </mxGeometry>
        </mxCell>
        <mxCell id="MDx-b8pmEuzIqAeEHO0I-55" value="" style="line;html=1;strokeWidth=1;align=left;verticalAlign=middle;spacingTop=-1;spacingLeft=3;spacingRight=3;rotatable=0;labelPosition=right;points=[];portConstraint=eastwest;labelBackgroundColor=none;rounded=0;" vertex="1" parent="MDx-b8pmEuzIqAeEHO0I-53">
          <mxGeometry y="26" width="327.31" height="14" as="geometry" />
        </mxCell>
        <mxCell id="MDx-b8pmEuzIqAeEHO0I-56" value="+getAllOrders(): List&lt;Order&gt;&#xa;+getOrdersByDate(LocalDate date): List&lt;Order&gt;&#xa;+editOrder(LocalDate date, int OrderNumber)&#xa;+removeOrder(LocalDate date, int OrderNumber)&#xa;+addOrder(LocalDate date, Order order)&#xa;&#xa;&#xa;&#xa;" style="text;align=left;verticalAlign=top;spacingLeft=4;spacingRight=4;overflow=hidden;rotatable=0;points=[[0,0.5],[1,0.5]];portConstraint=eastwest;labelBackgroundColor=none;rounded=0;" vertex="1" parent="MDx-b8pmEuzIqAeEHO0I-53">
          <mxGeometry y="40" width="327.31" height="77.42" as="geometry" />
        </mxCell>
        <mxCell id="MDx-b8pmEuzIqAeEHO0I-57" value="&amp;lt;&amp;lt;interface&amp;gt;&amp;gt;&lt;br&gt;&lt;b&gt;FlooringMasteryOrderDao&lt;/b&gt;" style="swimlane;fontStyle=0;align=center;verticalAlign=top;childLayout=stackLayout;horizontal=1;startSize=40;horizontalStack=0;resizeParent=1;resizeParentMax=0;resizeLast=0;collapsible=0;marginBottom=0;html=1;whiteSpace=wrap;" vertex="1" parent="WIyWlLk6GJQsqaUBKTNV-1">
          <mxGeometry x="800" y="399.99999999999994" width="170" height="38.55" as="geometry" />
        </mxCell>
        <mxCell id="MDx-b8pmEuzIqAeEHO0I-59" value="" style="endArrow=block;startArrow=none;endFill=0;startFill=0;endSize=8;html=1;verticalAlign=bottom;dashed=1;labelBackgroundColor=none;rounded=0;" edge="1" parent="WIyWlLk6GJQsqaUBKTNV-1">
          <mxGeometry width="160" relative="1" as="geometry">
            <mxPoint x="708.66" y="420" as="sourcePoint" />
            <mxPoint x="800" y="420" as="targetPoint" />
          </mxGeometry>
        </mxCell>
        <mxCell id="MDx-b8pmEuzIqAeEHO0I-60" value="FlooringMasteryProductDaoFileImpl" style="swimlane;fontStyle=3;align=center;verticalAlign=top;childLayout=stackLayout;horizontal=1;startSize=26;horizontalStack=0;resizeParent=1;resizeLast=0;collapsible=1;marginBottom=0;rounded=0;shadow=0;strokeWidth=1;labelBackgroundColor=none;" vertex="1" parent="WIyWlLk6GJQsqaUBKTNV-1">
          <mxGeometry x="381.35" y="500" width="327.31" height="70" as="geometry">
            <mxRectangle x="230" y="140" width="160" height="26" as="alternateBounds" />
          </mxGeometry>
        </mxCell>
        <mxCell id="MDx-b8pmEuzIqAeEHO0I-61" value="" style="line;html=1;strokeWidth=1;align=left;verticalAlign=middle;spacingTop=-1;spacingLeft=3;spacingRight=3;rotatable=0;labelPosition=right;points=[];portConstraint=eastwest;labelBackgroundColor=none;rounded=0;" vertex="1" parent="MDx-b8pmEuzIqAeEHO0I-60">
          <mxGeometry y="26" width="327.31" height="14" as="geometry" />
        </mxCell>
        <mxCell id="MDx-b8pmEuzIqAeEHO0I-62" value="+getAllProducts(): List&lt;Product&gt;&#xa;&#xa;&#xa;" style="text;align=left;verticalAlign=top;spacingLeft=4;spacingRight=4;overflow=hidden;rotatable=0;points=[[0,0.5],[1,0.5]];portConstraint=eastwest;labelBackgroundColor=none;rounded=0;" vertex="1" parent="MDx-b8pmEuzIqAeEHO0I-60">
          <mxGeometry y="40" width="327.31" height="20" as="geometry" />
        </mxCell>
        <mxCell id="MDx-b8pmEuzIqAeEHO0I-63" value="&amp;lt;&amp;lt;interface&amp;gt;&amp;gt;&lt;br&gt;&lt;b&gt;FlooringMasteryProductDao&lt;/b&gt;" style="swimlane;fontStyle=0;align=center;verticalAlign=top;childLayout=stackLayout;horizontal=1;startSize=40;horizontalStack=0;resizeParent=1;resizeParentMax=0;resizeLast=0;collapsible=0;marginBottom=0;html=1;whiteSpace=wrap;" vertex="1" parent="WIyWlLk6GJQsqaUBKTNV-1">
          <mxGeometry x="801.35" y="528.4499999999999" width="170" height="38.55" as="geometry" />
        </mxCell>
        <mxCell id="MDx-b8pmEuzIqAeEHO0I-64" value="" style="endArrow=block;startArrow=none;endFill=0;startFill=0;endSize=8;html=1;verticalAlign=bottom;dashed=1;labelBackgroundColor=none;rounded=0;" edge="1" parent="WIyWlLk6GJQsqaUBKTNV-1">
          <mxGeometry width="160" relative="1" as="geometry">
            <mxPoint x="708.66" y="548.78" as="sourcePoint" />
            <mxPoint x="800" y="548.78" as="targetPoint" />
          </mxGeometry>
        </mxCell>
        <mxCell id="MDx-b8pmEuzIqAeEHO0I-65" value="FlooringMasteryTaxDaoFileImpl" style="swimlane;fontStyle=3;align=center;verticalAlign=top;childLayout=stackLayout;horizontal=1;startSize=26;horizontalStack=0;resizeParent=1;resizeLast=0;collapsible=1;marginBottom=0;rounded=0;shadow=0;strokeWidth=1;labelBackgroundColor=none;" vertex="1" parent="WIyWlLk6GJQsqaUBKTNV-1">
          <mxGeometry x="381.35" y="590" width="327.31" height="70" as="geometry">
            <mxRectangle x="230" y="140" width="160" height="26" as="alternateBounds" />
          </mxGeometry>
        </mxCell>
        <mxCell id="MDx-b8pmEuzIqAeEHO0I-66" value="" style="line;html=1;strokeWidth=1;align=left;verticalAlign=middle;spacingTop=-1;spacingLeft=3;spacingRight=3;rotatable=0;labelPosition=right;points=[];portConstraint=eastwest;labelBackgroundColor=none;rounded=0;" vertex="1" parent="MDx-b8pmEuzIqAeEHO0I-65">
          <mxGeometry y="26" width="327.31" height="14" as="geometry" />
        </mxCell>
        <mxCell id="MDx-b8pmEuzIqAeEHO0I-71" value="+loadTaxInfoList()&#xa;" style="text;align=left;verticalAlign=top;spacingLeft=4;spacingRight=4;overflow=hidden;rotatable=0;points=[[0,0.5],[1,0.5]];portConstraint=eastwest;labelBackgroundColor=none;rounded=0;" vertex="1" parent="MDx-b8pmEuzIqAeEHO0I-65">
          <mxGeometry y="40" width="327.31" height="30" as="geometry" />
        </mxCell>
        <mxCell id="MDx-b8pmEuzIqAeEHO0I-68" value="&amp;lt;&amp;lt;interface&amp;gt;&amp;gt;&lt;br&gt;&lt;b&gt;FlooringMasteryTaxDao&lt;/b&gt;" style="swimlane;fontStyle=0;align=center;verticalAlign=top;childLayout=stackLayout;horizontal=1;startSize=40;horizontalStack=0;resizeParent=1;resizeParentMax=0;resizeLast=0;collapsible=0;marginBottom=0;html=1;whiteSpace=wrap;" vertex="1" parent="WIyWlLk6GJQsqaUBKTNV-1">
          <mxGeometry x="801.35" y="618.4499999999999" width="170" height="38.55" as="geometry" />
        </mxCell>
        <mxCell id="MDx-b8pmEuzIqAeEHO0I-69" value="" style="endArrow=block;startArrow=none;endFill=0;startFill=0;endSize=8;html=1;verticalAlign=bottom;dashed=1;labelBackgroundColor=none;rounded=0;" edge="1" parent="WIyWlLk6GJQsqaUBKTNV-1">
          <mxGeometry width="160" relative="1" as="geometry">
            <mxPoint x="708.66" y="638.78" as="sourcePoint" />
            <mxPoint x="800" y="638.78" as="targetPoint" />
          </mxGeometry>
        </mxCell>
      </root>
    </mxGraphModel>
  </diagram>
</mxfile>
